<?xml version="1.0" encoding="UTF-8"?> <svg xmlns="http://www.w3.org/2000/svg" xmlns:xlink="http://www.w3.org/1999/xlink" id="Group_71" data-name="Group 71" width="1000" height="563" viewBox="0 0 1000 563"><defs><linearGradient id="linear-gradient" x1="0.249" y1="0.5" x2="1" y2="0.5" gradientUnits="objectBoundingBox"><stop offset="0" stop-color="#021423"></stop><stop offset="1" stop-color="#043254"></stop></linearGradient><linearGradient id="linear-gradient-2" x1="0.751" x2="0" xlink:href="#linear-gradient"></linearGradient><linearGradient id="linear-gradient-9" x1="0.5" x2="0.5" y2="1" gradientUnits="objectBoundingBox"><stop offset="0" stop-color="#000f1b"></stop><stop offset="0.539" stop-color="#033357"></stop><stop offset="1" stop-color="#010f1a"></stop></linearGradient></defs><g id="Group_45" data-name="Group 45"><rect id="Rectangle_52" data-name="Rectangle 52" width="1000" height="563" fill="#011626"></rect><text id="LeewayHertz" transform="translate(879 532)" fill="#fff" font-size="16" font-family="Georgia" opacity="0.3"><tspan x="0" y="0">LeewayHertz</tspan></text></g><rect id="Rectangle_94" data-name="Rectangle 94" width="229" height="55" rx="7" transform="translate(95 88)" fill="url(#linear-gradient)"></rect><rect id="Rectangle_96" data-name="Rectangle 96" width="229" height="55" rx="7" transform="translate(677 88)" fill="url(#linear-gradient-2)"></rect><g id="Rectangle_53" data-name="Rectangle 53" transform="translate(40 69)" fill="#011322" stroke="#1079cc" stroke-width="1"><rect width="84" height="84" rx="11" stroke="none"></rect><rect x="0.5" y="0.5" width="83" height="83" rx="10.5" fill="none"></rect></g><g id="Rectangle_95" data-name="Rectangle 95" transform="translate(877 69)" fill="#011322" stroke="#1079cc" stroke-width="1"><rect width="84" height="84" rx="11" stroke="none"></rect><rect x="0.5" y="0.5" width="83" height="83" rx="10.5" fill="none"></rect></g><rect id="Rectangle_94-2" data-name="Rectangle 94" width="229" height="55" rx="7" transform="translate(95 202)" fill="url(#linear-gradient)"></rect><rect id="Rectangle_98" data-name="Rectangle 98" width="229" height="55" rx="7" transform="translate(677 202)" fill="url(#linear-gradient-2)"></rect><g id="Rectangle_53-2" data-name="Rectangle 53" transform="translate(40 183)" fill="#011322" stroke="#1079cc" stroke-width="1"><rect width="84" height="84" rx="11" stroke="none"></rect><rect x="0.5" y="0.5" width="83" height="83" rx="10.5" fill="none"></rect></g><g id="Rectangle_97" data-name="Rectangle 97" transform="translate(877 183)" fill="#011322" stroke="#1079cc" stroke-width="1"><rect width="84" height="84" rx="11" stroke="none"></rect><rect x="0.5" y="0.5" width="83" height="83" rx="10.5" fill="none"></rect></g><rect id="Rectangle_94-3" data-name="Rectangle 94" width="229" height="55" rx="7" transform="translate(95 316)" fill="url(#linear-gradient)"></rect><rect id="Rectangle_100" data-name="Rectangle 100" width="229" height="55" rx="7" transform="translate(677 316)" fill="url(#linear-gradient-2)"></rect><g id="Rectangle_53-3" data-name="Rectangle 53" transform="translate(40 297)" fill="#011322" stroke="#1079cc" stroke-width="1"><rect width="84" height="84" rx="11" stroke="none"></rect><rect x="0.5" y="0.5" width="83" height="83" rx="10.5" fill="none"></rect></g><g id="Rectangle_99" data-name="Rectangle 99" transform="translate(877 297)" fill="#011322" stroke="#1079cc" stroke-width="1"><rect width="84" height="84" rx="11" stroke="none"></rect><rect x="0.5" y="0.5" width="83" height="83" rx="10.5" fill="none"></rect></g><rect id="Rectangle_94-4" data-name="Rectangle 94" width="229" height="55" rx="7" transform="translate(95 430)" fill="url(#linear-gradient)"></rect><rect id="Rectangle_102" data-name="Rectangle 102" width="229" height="55" rx="7" transform="translate(677 430)" fill="url(#linear-gradient-2)"></rect><g id="Rectangle_53-4" data-name="Rectangle 53" transform="translate(40 411)" fill="#011322" stroke="#1079cc" stroke-width="1"><rect width="84" height="84" rx="11" stroke="none"></rect><rect x="0.5" y="0.5" width="83" height="83" rx="10.5" fill="none"></rect></g><g id="Rectangle_101" data-name="Rectangle 101" transform="translate(877 411)" fill="#011322" stroke="#1079cc" stroke-width="1"><rect width="84" height="84" rx="11" stroke="none"></rect><rect x="0.5" y="0.5" width="83" height="83" rx="10.5" fill="none"></rect></g><path id="Path_139" data-name="Path 139" d="M352,111h45.731V453.822" transform="translate(-28)" fill="none" stroke="#fff" stroke-width="2"></path><path id="Path_143" data-name="Path 143" d="M397.731,111H352V454.495" transform="translate(279.269)" fill="none" stroke="#fff" stroke-width="2"></path><path id="Path_140" data-name="Path 140" d="M352,111h45.731" transform="translate(-28 114)" fill="none" stroke="#fff" stroke-width="2"></path><path id="Path_147" data-name="Path 147" d="M352,111h43.91" transform="translate(17.731 170.5)" fill="none" stroke="#fff" stroke-width="2"></path><path id="Path_148" data-name="Path 148" d="M352,111h42.269" transform="translate(237 170.5)" fill="none" stroke="#fff" stroke-width="2"></path><path id="Path_144" data-name="Path 144" d="M352,111h45.731" transform="translate(279.269 114)" fill="none" stroke="#fff" stroke-width="2"></path><path id="Path_141" data-name="Path 141" d="M352,111h45.731" transform="translate(-28 228)" fill="none" stroke="#fff" stroke-width="2"></path><path id="Path_145" data-name="Path 145" d="M352,111h45.731" transform="translate(279.269 228)" fill="none" stroke="#fff" stroke-width="2"></path><path id="Path_142" data-name="Path 142" d="M352,111h45.731" transform="translate(-28 342)" fill="none" stroke="#fff" stroke-width="2"></path><path id="Path_146" data-name="Path 146" d="M352,111h45.731" transform="translate(279.269 342)" fill="none" stroke="#fff" stroke-width="2"></path><g id="Rectangle_66" data-name="Rectangle 66" transform="translate(412 58)" stroke="#49a6ef" stroke-width="1" fill="url(#linear-gradient-9)"><rect width="177" height="448" rx="32" stroke="none"></rect><rect x="0.5" y="0.5" width="176" height="447" rx="31.5" fill="none"></rect></g><text id="Social_Media_Post" data-name="Social Media Post" transform="translate(138 123)" fill="#fff" font-size="18" font-family="OpenSans, Open Sans"><tspan x="0" y="0">Social Media Post</tspan></text><text id="Better_Competitor_Analysis" data-name="Better Competitor Analysis" transform="translate(863 111)" fill="#fff" font-size="18" font-family="OpenSans, Open Sans"><tspan x="-152" y="0">Better Competitor</tspan><tspan x="-67" y="24">Analysis</tspan></text><text id="Streamlined_Content_Creation" data-name="Streamlined Content Creation" transform="translate(863 225)" fill="#fff" font-size="18" font-family="OpenSans, Open Sans"><tspan x="-173" y="0">Streamlined Content</tspan><tspan x="-71" y="24">Creation</tspan></text><text id="Content_Optimization" data-name="Content Optimization" transform="translate(863 339)" fill="#fff" font-size="18" font-family="OpenSans, Open Sans"><tspan x="-67" y="0">Content</tspan><tspan x="-108" y="24">Optimization</tspan></text><text id="Content_Personalisation" data-name="Content Personalisation" transform="translate(863 453)" fill="#fff" font-size="18" font-family="OpenSans, Open Sans"><tspan x="-67" y="0">Content</tspan><tspan x="-129" y="24">Personalisation</tspan></text><text id="Blogs" transform="translate(138 237)" fill="#fff" font-size="18" font-family="OpenSans, Open Sans"><tspan x="0" y="0">Blogs</tspan></text><text id="Video_Editing" data-name="Video Editing" transform="translate(138 351)" fill="#fff" font-size="18" font-family="OpenSans, Open Sans"><tspan x="0" y="0">Video Editing</tspan></text><text id="Audio_Generation" data-name="Audio Generation" transform="translate(138 465)" fill="#fff" font-size="18" font-family="OpenSans, Open Sans"><tspan x="0" y="0">Audio Generation</tspan></text><g id="Group_46" data-name="Group 46" transform="translate(-2 -12)"><g id="Group_42" data-name="Group 42" transform="translate(-340.125 -465)"><path id="Path_124" data-name="Path 124" d="M34.25,79.54l-4.49,2.24a6,6,0,0,1,.67,1.34l4.9-2.45a.75.75,0,0,0,.42-.67V75.75h-1.5Z" transform="translate(793.375 657.25)" fill="#fff"></path><circle id="Ellipse_15" data-name="Ellipse 15" cx="4.25" cy="4.25" r="4.25" transform="translate(814.125 738)" fill="#fff"></circle><path id="Path_125" data-name="Path 125" d="M64.25,80a.75.75,0,0,0,.42.67l4.9,2.45a6,6,0,0,1,.67-1.34l-4.49-2.24V75.75h-1.5Z" transform="translate(793.375 657.25)" fill="#fff"></path><circle id="Ellipse_16" data-name="Ellipse 16" cx="4.25" cy="4.25" r="4.25" transform="translate(864.125 738)" fill="#fff"></circle><path id="Path_126" data-name="Path 126" d="M49.25,79.3a5.65,5.65,0,0,1,1.5,0V75.75h-1.5Z" transform="translate(793.375 657.25)" fill="#fff"></path><circle id="Ellipse_17" data-name="Ellipse 17" cx="4.25" cy="4.25" r="4.25" transform="translate(839.125 738)" fill="#fff"></circle><path id="Path_127" data-name="Path 127" d="M65.75,20.46l4.49-2.24a6,6,0,0,1-.67-1.34l-4.9,2.45a.75.75,0,0,0-.42.67v4.25h1.5Z" transform="translate(793.375 657.25)" fill="#fff"></path><circle id="Ellipse_18" data-name="Ellipse 18" cx="4.25" cy="4.25" r="4.25" transform="translate(864.125 668)" fill="#fff"></circle><path id="Path_128" data-name="Path 128" d="M35.75,20a.75.75,0,0,0-.42-.67l-4.9-2.45a6,6,0,0,1-.67,1.34l4.49,2.24v3.79h1.5Z" transform="translate(793.375 657.25)" fill="#fff"></path><circle id="Ellipse_19" data-name="Ellipse 19" cx="4.25" cy="4.25" r="4.25" transform="translate(814.125 668)" fill="#fff"></circle><path id="Path_129" data-name="Path 129" d="M50.75,20.7a5.65,5.65,0,0,1-1.5,0v3.55h1.5Z" transform="translate(793.375 657.25)" fill="#fff"></path><circle id="Ellipse_20" data-name="Ellipse 20" cx="4.25" cy="4.25" r="4.25" transform="translate(839.125 668)" fill="#fff"></circle><path id="Path_130" data-name="Path 130" d="M20.46,34.25l-2.24-4.49a6,6,0,0,1-1.34.67l2.45,4.91a.76.76,0,0,0,.67.41h4.25v-1.5Z" transform="translate(793.375 657.25)" fill="#fff"></path><circle id="Ellipse_21" data-name="Ellipse 21" cx="4.25" cy="4.25" r="4.25" transform="translate(804.125 678)" fill="#fff"></circle><path id="Path_131" data-name="Path 131" d="M20,64.25a.76.76,0,0,0-.67.41l-2.45,4.91a6,6,0,0,1,1.34.67l2.24-4.49h3.79v-1.5Z" transform="translate(793.375 657.25)" fill="#fff"></path><circle id="Ellipse_22" data-name="Ellipse 22" cx="4.25" cy="4.25" r="4.25" transform="translate(804.125 728)" fill="#fff"></circle><path id="Path_132" data-name="Path 132" d="M24.25,49.25H20.7a5.65,5.65,0,0,1,0,1.5h3.55Z" transform="translate(793.375 657.25)" fill="#fff"></path><circle id="Ellipse_23" data-name="Ellipse 23" cx="4.25" cy="4.25" r="4.25" transform="translate(804.125 703)" fill="#fff"></circle><path id="Path_133" data-name="Path 133" d="M79.54,65.75l2.24,4.49a6,6,0,0,1,1.34-.67l-2.45-4.91a.76.76,0,0,0-.67-.41H75.75v1.5Z" transform="translate(793.375 657.25)" fill="#fff"></path><circle id="Ellipse_24" data-name="Ellipse 24" cx="4.25" cy="4.25" r="4.25" transform="translate(874.125 728)" fill="#fff"></circle><path id="Path_134" data-name="Path 134" d="M80,35.75a.76.76,0,0,0,.67-.41l2.45-4.91a6,6,0,0,1-1.34-.67l-2.24,4.49H75.75v1.5Z" transform="translate(793.375 657.25)" fill="#fff"></path><circle id="Ellipse_25" data-name="Ellipse 25" cx="4.25" cy="4.25" r="4.25" transform="translate(874.125 678)" fill="#fff"></circle><path id="Path_135" data-name="Path 135" d="M79.3,50.75a5.65,5.65,0,0,1,0-1.5H75.75v1.5Z" transform="translate(793.375 657.25)" fill="#fff"></path><path id="Path_136" data-name="Path 136" d="M25.75,29.34V70.66a3.59,3.59,0,0,0,3.59,3.59H70.66a3.59,3.59,0,0,0,3.59-3.59V29.34a3.59,3.59,0,0,0-3.59-3.59H29.34a3.59,3.59,0,0,0-3.59,3.59ZM36.64,44.08c-.43-3.26.13-5.7,1.66-7.25a6.25,6.25,0,0,1,4.62-1.7A5.75,5.75,0,0,1,47,32.92a4.84,4.84,0,0,1,3,1,4.82,4.82,0,0,1,2.9-1H53a5.75,5.75,0,0,1,4.09,2.21,6.25,6.25,0,0,1,4.62,1.7c1.53,1.55,2.09,4,1.66,7.25a8.59,8.59,0,0,1-.84,11.87c.13,2.78-1,7.6-6.06,8.51a4.08,4.08,0,0,1-1.55,1.85,5.25,5.25,0,0,1-2.9.77,9.3,9.3,0,0,1-2-.24,6.4,6.4,0,0,1-4.91-.53,4.08,4.08,0,0,1-1.55-1.85c-5.09-.91-6.19-5.73-6.06-8.51C32.23,50.68,35.67,45.35,36.64,44.08Z" transform="translate(793.375 657.25)" fill="#fff"></path><path id="Path_137" data-name="Path 137" d="M56.18,36.38a4.55,4.55,0,0,0-3.21-2,3.49,3.49,0,0,0-2.22.86v30.2a4.67,4.67,0,0,0,3.32-.38,2.46,2.46,0,0,0,1.09-1.42.77.77,0,0,1,.64-.59c5.75-.73,5.22-7,5.2-7.32a.73.73,0,0,1,.23-.61A7.2,7.2,0,0,0,62,44.79a.74.74,0,0,1-.19-.6c.43-2.94,0-5.06-1.19-6.3a4.94,4.94,0,0,0-3.79-1.24.73.73,0,0,1-.65-.27Z" transform="translate(793.375 657.25)" fill="#fff"></path><path id="Path_138" data-name="Path 138" d="M39,55.73c0,.27-.53,6.59,5.2,7.32a.74.74,0,0,1,.64.6,2.48,2.48,0,0,0,1.09,1.41,4.67,4.67,0,0,0,3.32.38V35.28A3.47,3.47,0,0,0,47,34.42a4.55,4.55,0,0,0-3.21,2,.75.75,0,0,1-.67.27,5,5,0,0,0-3.8,1.25c-1.21,1.24-1.61,3.36-1.18,6.29a.74.74,0,0,1-.19.6,7.2,7.2,0,0,0,.79,10.33.73.73,0,0,1,.26.57Z" transform="translate(793.375 657.25)" fill="#fff"></path><circle id="Ellipse_26" data-name="Ellipse 26" cx="4.25" cy="4.25" r="4.25" transform="translate(874.125 703)" fill="#fff"></circle></g><text id="AI_for_content_creation" data-name="AI for content creation" transform="translate(503 311.5)" fill="#fff" font-size="24" font-family="OpenSans-Semibold, Open Sans" font-weight="600"><tspan x="-31" y="0">AI for</tspan><tspan x="-46" y="33">Content</tspan><tspan x="-49" y="66">Creation</tspan></text></g><g id="Group_52" data-name="Group 52" transform="translate(-206 -33)"><g id="Group_51" data-name="Group 51" transform="translate(1102 349)"><path id="Path_152" data-name="Path 152" d="M35.324,2H32.1a1.6,1.6,0,0,0-.555,3.109L27.272,9.385,25.19,7.3a1.61,1.61,0,0,0-2.277,0L16,14.216V18.77l8.052-8.052L26.134,12.8a1.61,1.61,0,0,0,2.277,0l5.415-5.415a1.6,1.6,0,0,0,3.109-.555V3.61A1.61,1.61,0,0,0,35.324,2Z" transform="translate(6.544 -2)" fill="#fff"></path><path id="Path_153" data-name="Path 153" d="M23.2,35.156a2.4,2.4,0,0,1-.51-2.662l1.217-2.24c-.08-.183-.157-.369-.228-.557l-2.307-.677a2.449,2.449,0,0,1-1.664-2.293V24.6a2.4,2.4,0,0,1,1.519-2.242l2.45-.725c.072-.189.149-.374.23-.557l-1.153-2.108a2.444,2.444,0,0,1,.445-2.8L23.372,16H3.61A1.61,1.61,0,0,0,2,17.61v16.1a1.61,1.61,0,0,0,1.61,1.61H23.372Zm-5.546-8.775L9.606,30.407a.808.808,0,0,1-.36.085.806.806,0,0,1-.805-.805V21.636a.805.805,0,0,1,1.165-.72l8.052,4.026a.805.805,0,0,1,0,1.44Z" transform="translate(-2 6.544)" fill="#fff"></path><path id="Path_154" data-name="Path 154" d="M39.259,25.07l-3.111-.912a9.6,9.6,0,0,0-.784-1.9l1.552-2.84a.805.805,0,0,0-.171-.887L35.238,17.02a.805.805,0,0,0-.886-.171L31.512,18.4a9.6,9.6,0,0,0-1.9-.784L28.7,14.506A.805.805,0,0,0,27.948,14h-2.13a.805.805,0,0,0-.748.506l-.912,3.111a9.6,9.6,0,0,0-1.9.784l-2.84-1.552a.805.805,0,0,0-.886.171L17.02,18.526a.805.805,0,0,0-.171.887l1.552,2.84a9.6,9.6,0,0,0-.784,1.9l-3.111.912a.805.805,0,0,0-.506.748v2.13a.805.805,0,0,0,.506.748l3.111.912a9.6,9.6,0,0,0,.784,1.9l-1.552,2.84a.8.8,0,0,0,.171.886l1.506,1.506a.8.8,0,0,0,.886.171l2.84-1.552a9.6,9.6,0,0,0,1.9.784l.912,3.111a.805.805,0,0,0,.748.506h2.13a.805.805,0,0,0,.748-.506l.912-3.111a9.6,9.6,0,0,0,1.9-.784l2.84,1.552a.8.8,0,0,0,.886-.171l1.506-1.506a.8.8,0,0,0,.171-.886l-1.552-2.84a9.6,9.6,0,0,0,.784-1.9l3.111-.912a.805.805,0,0,0,.506-.748v-2.13A.805.805,0,0,0,39.259,25.07ZM26.882,31.713a4.831,4.831,0,1,1,4.831-4.831A4.831,4.831,0,0,1,26.882,31.713Z" transform="translate(5.324 5.324)" fill="#fff"></path><circle id="Ellipse_27" data-name="Ellipse 27" cx="3.276" cy="3.276" r="3.276" transform="translate(29.019 29.019)" fill="#fff"></circle><path id="Path_155" data-name="Path 155" d="M7,25.755l5.446-2.723L7,20.309Z" transform="translate(1.052 9.174)" fill="#fff"></path><path id="Path_156" data-name="Path 156" d="M12,2V6.831h4.831Z" transform="translate(4.103 -2)" fill="#fff"></path><path id="Path_157" data-name="Path 157" d="M17.493,8.441a1.61,1.61,0,0,1-1.61-1.61V2H4.61A1.61,1.61,0,0,0,3,3.61V22.934H22.324V8.441ZM18.3,21.324H7.026a.805.805,0,1,1,0-1.61H18.3a.805.805,0,1,1,0,1.61Zm0-3.221H7.026a.805.805,0,1,1,0-1.61H18.3a.805.805,0,1,1,0,1.61Zm0-3.221H7.026a.805.805,0,1,1,0-1.61H18.3a.805.805,0,1,1,0,1.61Z" transform="translate(-1.39 -2)" fill="#fff"></path></g></g><g id="Group_55" data-name="Group 55" transform="translate(-1084 159)"><g id="Group_54" data-name="Group 54" transform="translate(1142 270)"><g id="Group_53" data-name="Group 53" transform="translate(0 0)"><path id="Path_158" data-name="Path 158" d="M117.546,198.091A1.546,1.546,0,1,0,116,196.546,1.547,1.547,0,0,0,117.546,198.091Z" transform="translate(-106.726 -177.688)" fill="#fff"></path><path id="Path_159" data-name="Path 159" d="M367.546,195a1.546,1.546,0,1,0,1.546,1.546A1.547,1.547,0,0,0,367.546,195Z" transform="translate(-330.963 -177.688)" fill="#fff"></path><path id="Path_160" data-name="Path 160" d="M36.515,28.03H50.427v3.916H67.945V28.03H79.8a.515.515,0,1,0,0-1.03H36.515a.515.515,0,0,0,0,1.03Z" transform="translate(-34.97 -27)" fill="#fff"></path><path id="Path_161" data-name="Path 161" d="M79.8,475H36.515a.515.515,0,1,0,0,1.03H79.8a.515.515,0,1,0,0-1.03Z" transform="translate(-34.97 -428.834)" fill="#fff"></path><path id="Path_162" data-name="Path 162" d="M33.216,136.526a3.606,3.606,0,1,0,7.141-.8l5.894-3.929h6.9l5.894,3.929a3.606,3.606,0,1,0,7.141.8l5.1-14.292a10.839,10.839,0,1,0-1.765,1.877L65.745,134.7a3.605,3.605,0,0,0-6.339.025L53.823,131v-4.877a.515.515,0,0,0-.515-.515H46.095a.515.515,0,0,0-.515.515V131L40,134.724a3.605,3.605,0,0,0-6.339-.025l-3.781-10.587a10.826,10.826,0,1,0-1.765-1.877Zm33.489-23.8h2.061v2.061H66.7Zm-10.3,0h2.061v2.061H56.4ZM63.613,122H61.552v-2.061h2.061Zm5.565-1.752a.515.515,0,0,1-.721.1l-3.877-2.908a2.572,2.572,0,0,1-3.993,0l-3.877,2.908a.515.515,0,1,1-.618-.824l4.013-3.01a2.575,2.575,0,0,1,1.964-3.224v-4.689a.515.515,0,1,1,1.031,0V113.3a2.575,2.575,0,0,1,1.964,3.224l4.013,3.01A.515.515,0,0,1,69.178,120.251ZM37.851,122H35.79v-2.061h2.061Zm3.091-9.274H43v2.061H40.942Zm-10.3,0H32.7v2.061H30.637Zm-.309,6.8,4.013-3.01A2.575,2.575,0,0,1,36.3,113.3v-4.689a.515.515,0,1,1,1.03,0V113.3A2.575,2.575,0,0,1,39.3,116.52l4.013,3.01a.515.515,0,0,1-.618.824l-3.877-2.908a2.572,2.572,0,0,1-3.993,0l-3.877,2.908a.515.515,0,0,1-.618-.824Z" transform="translate(-26 -96.962)" fill="#fff"></path></g></g></g><g id="Group_56" data-name="Group 56" transform="translate(-1032 -170)"><path id="Path_163" data-name="Path 163" d="M26,38.751v1.5a.751.751,0,0,0,.751.751H40.266a.751.751,0,0,0,.751-.751v-1.5A.751.751,0,0,0,40.266,38H26.751a.751.751,0,0,0-.751.751Z" transform="translate(1076.01 351.02)" fill="#fff"></path><path id="Path_164" data-name="Path 164" d="M35.03,20H14.007A6.007,6.007,0,0,0,8,26.007v27.03a6.007,6.007,0,0,0,6.007,6.007H35.03a6.007,6.007,0,0,0,6.007-6.007V26.007A6.007,6.007,0,0,0,35.03,20ZM14.446,26.446a1.5,1.5,0,0,1,1.062-.44h18.02a1.5,1.5,0,0,1,1.5,1.5v6.007a1.5,1.5,0,0,1-1.5,1.5H15.508a1.5,1.5,0,0,1-1.5-1.5V27.508A1.5,1.5,0,0,1,14.446,26.446ZM32.027,38.02H17.01a3,3,0,0,0,0,6.007H32.027a3,3,0,0,0,0-6.007Zm0,9.01H17.01a3,3,0,0,0,0,6.007H32.027a3,3,0,0,0,0-6.007Z" transform="translate(1085 360.01)" fill="#fff" fill-rule="evenodd"></path><path id="Path_165" data-name="Path 165" d="M56.027,41.043V14.013A6.007,6.007,0,0,0,50.02,8.007H32A6.007,6.007,0,0,1,38.007,2h18.02a6.007,6.007,0,0,1,6.007,6.007v27.03a6.007,6.007,0,0,1-6.007,6.007Z" transform="translate(1073.013 369)" fill="#fff"></path></g><g id="Group_57" data-name="Group 57" transform="translate(-1155.58 -59.847)"><path id="Path_166" data-name="Path 166" d="M62.348,17.5H21.405L19.58,19.333V45.071h44.6V19.333ZM48.654,32.264,37.2,38.862,36.06,38.2v-13.2l1.136-.652,11.458,6.6Z" transform="translate(1196 357.347)" fill="#fff"></path><path id="Path_167" data-name="Path 167" d="M19.58,57.17V73.906l1.825,1.825H62.348l1.833-1.825V57.17Zm9.53,5.183a.733.733,0,0,1,.733-.733H49.335V59.941h4.545v4.838h-3.79l-.733-.733v-.938H29.872a.733.733,0,0,1-.755-.755Zm24.771,8.958H34.417v1.664h-3.79c-.293-.293-.455-.462-.733-.733V68.137h4.545V69.8H53.881a.755.755,0,0,1,0,1.51Z" transform="translate(1196 346.758)" fill="#fff"></path></g><g id="Group_58" data-name="Group 58" transform="translate(-1063.999 -336.257)"><path id="Path_168" data-name="Path 168" d="M37.331,18.744h5.863a.667.667,0,0,1,.653.791,4.135,4.135,0,0,1-.416,1.172,2.852,2.852,0,0,0,2.1-1.577.667.667,0,0,1,.6-.386H47.8a1.479,1.479,0,0,0,1.477-1.477V11.3A1.479,1.479,0,0,0,47.806,9.82H37.331A1.479,1.479,0,0,0,35.853,11.3v5.969A1.479,1.479,0,0,0,37.331,18.744Zm9.155-6.191a1.729,1.729,0,1,1-1.729,1.729,1.729,1.729,0,0,1,1.729-1.729Zm-3.917,0a1.729,1.729,0,1,1-1.729,1.729A1.729,1.729,0,0,1,42.569,12.553Zm-3.918,0a1.729,1.729,0,1,1-1.729,1.729A1.729,1.729,0,0,1,38.651,12.553Zm-28.5,9.7a4.812,4.812,0,0,0,.862,1.2.667.667,0,0,1-.484,1.129h0a6.813,6.813,0,0,1-3.354-.758v10.09l9.991-8.451a.667.667,0,0,1,.813-.037l11.05,7.744,10.735-7.739a.667.667,0,0,1,.862.07l3.564,3.564h.665V21.615a6.5,6.5,0,0,1-2.839.573h0a.667.667,0,0,1-.484-1.129,4.39,4.39,0,0,0,.727-.984H37.331a2.814,2.814,0,0,1-2.811-2.811V15.47h-15.8v3.753a3.03,3.03,0,0,1-3.03,3.03Zm18.27-3.014a4.675,4.675,0,1,1-4.675,4.675,4.675,4.675,0,0,1,4.675-4.675ZM25.08,23.913a3.342,3.342,0,1,1,3.342,3.342,3.342,3.342,0,0,1-3.342-3.342Zm-20.932-3H5.985a.667.667,0,0,1,.6.385A3.257,3.257,0,0,0,9.1,23.11a4.574,4.574,0,0,1-.52-1.4.667.667,0,0,1,.653-.791h6.462a1.7,1.7,0,0,0,1.7-1.7V12.645a1.7,1.7,0,0,0-1.7-1.7H4.148a1.7,1.7,0,0,0-1.7,1.7v6.578A1.7,1.7,0,0,0,4.148,20.917Zm1.1-4.685a1.176,1.176,0,0,1,1.174-1.174H8.031a2.653,2.653,0,0,1,1.053-1.014c.951-.614,1.248-.814,1.485-2.419a.667.667,0,0,1,.608-.566,2.372,2.372,0,0,1,2.211.763,3.035,3.035,0,0,1,.216,2.673c.1.056.213.112.284.149.342.172.811.409.689.951L13.7,19.5a1.515,1.515,0,0,1-1.452,1.322H10.319a2.63,2.63,0,0,1-1.589-.535.662.662,0,0,1-.385.123H6.422a1.176,1.176,0,0,1-1.174-1.174ZM8.607,39.37a7.61,7.61,0,1,0,7.611,7.611A7.609,7.609,0,0,0,8.607,39.37ZM14.651,45.7a.665.665,0,0,1-.238.51l-4.159,3.5a.667.667,0,0,1-1.1-.51V48.035a5.228,5.228,0,0,0-4.679,2.3.668.668,0,0,1-.554.3.676.676,0,0,1-.187-.027.668.668,0,0,1-.48-.626,6.436,6.436,0,0,1,5.9-6.559V42.209a.667.667,0,0,1,1.1-.51l4.159,3.495a.666.666,0,0,1,.239.51Zm26.662-2.625h3.542V45.6a4.267,4.267,0,0,1-4.262,4.262H17.067a8.927,8.927,0,0,0-9.893-11.71v-2.5l10.463-8.851L32.4,37.161a.668.668,0,1,0,.766-1.094l-2.982-2.091,9.9-7.134,2.222,2.222h-.991A3.321,3.321,0,0,0,38,32.383v7.379a3.321,3.321,0,0,0,3.317,3.317ZM54.264,30.4H41.313a1.986,1.986,0,0,0-1.982,1.986v7.379a1.986,1.986,0,0,0,1.984,1.984h7.248a.667.667,0,0,1,.653.791,5.1,5.1,0,0,1-.664,1.7A3.791,3.791,0,0,0,51.6,42.131a.668.668,0,0,1,.61-.385h2.059a1.986,1.986,0,0,0,1.981-1.984V32.383A1.986,1.986,0,0,0,54.265,30.4Zm-2.187,7.169a8.287,8.287,0,0,1-4.166,3.075h0a.654.654,0,0,1-.105.008,4.481,4.481,0,0,1-1.712-.7,8.2,8.2,0,0,1-2.342-2.063,4.5,4.5,0,0,1-.7-4.729,2.894,2.894,0,0,1,2.531-1.663h.028a2.865,2.865,0,0,1,2.193,1.157,2.843,2.843,0,0,1,2.069-1.026,2.942,2.942,0,0,1,2.6,1.556A4.2,4.2,0,0,1,52.077,37.566Zm-.763-3.734a2.917,2.917,0,0,1-.36,3.013A7.115,7.115,0,0,1,47.768,39.3a7.219,7.219,0,0,1-2.944-2.205,3.206,3.206,0,0,1-.58-3.327,1.574,1.574,0,0,1,1.343-.94H45.6c.611.006,1.176.479,1.591,1.334a.667.667,0,0,0,.594.375h0a.667.667,0,0,0,.6-.37A1.856,1.856,0,0,1,49.9,32.956a1.6,1.6,0,0,1,1.412.876ZM9.012,18.185V16.378a1.307,1.307,0,0,1,.713-1.163c.019-.01.038-.021.056-.033a3.6,3.6,0,0,0,2.006-2.789.784.784,0,0,1,.541.242,2.221,2.221,0,0,1-.1,1.794c-.242.686.426,1.081.945,1.347L12.4,19.209c-.037.165-.109.28-.15.28h-1.93A1.307,1.307,0,0,1,9.012,18.185Zm-1.334.9H6.584V16.393h1.1v2.686Zm38.411-4.8a.4.4,0,1,1,.4.4A.4.4,0,0,1,46.09,14.282Zm-3.917,0a.4.4,0,1,1,.4.4.4.4,0,0,1-.4-.4Zm-3.918,0a.4.4,0,1,1,.4.4.4.4,0,0,1-.4-.4ZM6.091,46.229a5.134,5.134,0,0,1,3.072-1.465V46.7a6.568,6.568,0,0,0-4.2,1.248,5.109,5.109,0,0,1,1.131-1.719Zm6.859-.525L10.5,47.77V43.641Z" transform="translate(1117 415.437)" fill="#fff"></path></g><g id="Group_59" data-name="Group 59" transform="translate(-126 -548)"><path id="Path_169" data-name="Path 169" d="M46.662,2H3.654A1.654,1.654,0,0,0,2,3.654V35.91a1.654,1.654,0,0,0,1.654,1.654H46.662a1.654,1.654,0,0,0,1.654-1.654V3.654A1.654,1.654,0,0,0,46.662,2Zm0,32.256a1.654,1.654,0,0,1-1.654,1.654H5.308a1.654,1.654,0,0,1-1.654-1.654V5.308A1.654,1.654,0,0,1,5.308,3.654h39.7a1.654,1.654,0,0,1,1.654,1.654Z" transform="translate(1020 634)" fill="#fff"></path><path id="Path_170" data-name="Path 170" d="M6,34.947H45.7V6H6ZM30.5,19.291a30.061,30.061,0,0,0,8.256-5.847h-.5a.827.827,0,1,1,0-1.654h2.481a.827.827,0,0,1,.827.827V15.1a.827.827,0,1,1-1.654,0v-.466a31.1,31.1,0,0,1-8.791,6.2.814.814,0,0,1-.307.059.827.827,0,0,1-.309-1.595Zm-1.346,9.04h.827V23.368a.827.827,0,0,1,1.654,0v4.962h1.654V21.714a.827.827,0,1,1,1.654,0v6.617H36.6V20.06a.827.827,0,1,1,1.654,0v8.271H39.91V18.406a.827.827,0,0,1,1.654,0v9.925h.827a.827.827,0,1,1,0,1.654H29.158a.827.827,0,0,1,0-1.654ZM17.579,10.962a9.925,9.925,0,0,1,8.842,5.44c.01.017.026.028.036.046s.009.044.018.065a9.869,9.869,0,0,1-1.851,11.356c-.011.012-.014.026-.026.037s-.026.015-.037.026a9.925,9.925,0,1,1-6.982-16.97Z" transform="translate(1019.308 633.308)" fill="#fff"></path><rect id="Rectangle_112" data-name="Rectangle 112" width="22" height="2" rx="1" transform="translate(1034 680.316)" fill="#fff"></rect><path id="Path_171" data-name="Path 171" d="M24,47v4.962h9.925V47Zm6.617,3.308H27.308a.827.827,0,1,1,0-1.654h3.308a.827.827,0,0,1,0,1.654Z" transform="translate(1016.195 626.218)" fill="#fff"></path><path id="Path_172" data-name="Path 172" d="M26.692,28.616a8.209,8.209,0,0,0,1.323-8.166l-6.326,3.163Z" transform="translate(1016.595 630.809)" fill="#fff"></path><path id="Path_173" data-name="Path 173" d="M21,14.051v6.89l6.154-3.078A8.271,8.271,0,0,0,21,14.051Z" transform="translate(1016.714 631.916)" fill="#fff"></path><path id="Path_174" data-name="Path 174" d="M18.272,30.55a8.233,8.233,0,0,0,5.23-1.871l-5.815-5.815-.007-.009a.836.836,0,0,1-.149-.206.04.04,0,0,0-.007-.028.894.894,0,0,1-.044-.165.848.848,0,0,1-.031-.155c0-.008,0-.017,0-.025V14.051a8.271,8.271,0,0,0,.827,16.5Z" transform="translate(1018.615 631.916)" fill="#fff"></path></g><g id="Group_67" data-name="Group 67" transform="translate(-189.6 -102)"><g id="Group_66" data-name="Group 66" transform="translate(1080.6 297)"><g id="Group_60" data-name="Group 60" transform="translate(0 13.843)"><path id="Path_175" data-name="Path 175" d="M58.066,40.056H55.279V26.027h2.787A.931.931,0,0,0,59,25.1a.878.878,0,0,0-.929-.929H55.279v-7.34a1,1,0,0,0-.929-.929H48.125V37.641a4.6,4.6,0,0,1-4.645,4.645H18.116a4.6,4.6,0,0,1-4.645-4.645V15.9H7.245a.878.878,0,0,0-.929.929v7.34H3.529A.878.878,0,0,0,2.6,25.1a.931.931,0,0,0,.929.929H6.316V40.056H3.529a.929.929,0,1,0,0,1.858H6.316v7.34a.878.878,0,0,0,.929.929H21.739l-5.575,9.941a.957.957,0,1,0,1.672.929l6.039-10.87h6.039v5.575a.929.929,0,1,0,1.858,0V50.183h6.039l6.039,10.87a.957.957,0,0,0,1.672-.929l-5.575-9.941H54.443a.931.931,0,0,0,.929-.929v-7.34h2.787a.931.931,0,0,0,.929-.929A1.018,1.018,0,0,0,58.066,40.056ZM19.788,47.21a1,1,0,0,1-.929-.929.931.931,0,0,1,.929-.929h1.858a.878.878,0,0,1,.929.929.931.931,0,0,1-.929.929Zm11.985,0H29.915a1,1,0,0,1-.929-.929.931.931,0,0,1,.929-.929h1.858a.878.878,0,0,1,.929.929A1,1,0,0,1,31.773,47.21Zm10.127,0H40.042a1,1,0,0,1-.929-.929.931.931,0,0,1,.929-.929H41.9a.878.878,0,0,1,.929.929A.931.931,0,0,1,41.9,47.21Z" transform="translate(-2.6 -15.9)" fill="#fff"></path></g><g id="Group_61" data-name="Group 61" transform="translate(13.286 0.557)"><path id="Path_176" data-name="Path 176" d="M24.426,1.6,16.9,9.126h7.526Z" transform="translate(-16.9 -1.6)" fill="#fff"></path></g><g id="Group_62" data-name="Group 62" transform="translate(30.474 26.572)"><path id="Path_177" data-name="Path 177" d="M38,34.153,40.6,29.6H35.4Z" transform="translate(-35.4 -29.6)" fill="#fff"></path></g><g id="Group_63" data-name="Group 63" transform="translate(34.005 6.225)"><rect id="Rectangle_113" data-name="Rectangle 113" width="2.323" height="18.489" fill="#fff"></rect></g><g id="Group_64" data-name="Group 64" transform="translate(29.824 6.225)"><path id="Path_178" data-name="Path 178" d="M37.023,26.189V7.7H34.7V26.189Z" transform="translate(-34.7 -7.7)" fill="#fff"></path></g><g id="Group_65" data-name="Group 65" transform="translate(12.728 0)"><path id="Path_179" data-name="Path 179" d="M19.087,39.371H44.544a2.738,2.738,0,0,0,2.787-2.787V3.787A2.8,2.8,0,0,0,44.544,1h-18.3v9.012a.931.931,0,0,1-.929.929H16.3V36.584A2.738,2.738,0,0,0,19.087,39.371ZM31.537,7.225A1.864,1.864,0,0,1,33.4,5.367h6.5a1.864,1.864,0,0,1,1.858,1.858c0,20.719.093,19.511-.093,19.882L37.483,34.54a.883.883,0,0,1-1.579,0l-4.181-7.433C31.351,26.643,31.63,26.271,31.537,7.225Zm-8.548,9.663h4.738a.929.929,0,0,1,0,1.858H22.989a.878.878,0,0,1-.929-.929A.931.931,0,0,1,22.989,16.887Zm0,6.411h4.738a.929.929,0,0,1,0,1.858H22.989a.878.878,0,0,1-.929-.929A1,1,0,0,1,22.989,23.3Zm0,6.5h4.738a.929.929,0,0,1,0,1.858H22.989a.878.878,0,0,1-.929-.929A.931.931,0,0,1,22.989,29.8Z" transform="translate(-16.3 -1)" fill="#fff"></path></g></g></g><g id="Group_70" data-name="Group 70" transform="translate(-75.798 -273.798)"><path id="Path_180" data-name="Path 180" d="M17.884,10.846a.934.934,0,1,1-1.066-1.534,29.788,29.788,0,0,1,37.2,2.6l-.273-3.4A.934.934,0,1,1,55.6,8.364l.473,5.891a.939.939,0,0,1-1.02,1l-5.875-.471a.934.934,0,1,1,.146-1.863l3.321.266a27.937,27.937,0,0,0-34.766-2.344ZM8.51,13.854a.934.934,0,0,1-.146-1.863l5.891-.473a.939.939,0,0,1,1,1.02l-.471,5.875a.934.934,0,1,1-1.863-.146l.266-3.321a27.936,27.936,0,0,0-2.343,34.766.934.934,0,0,1-1.534,1.066,29.787,29.787,0,0,1,2.6-37.2l-3.4.273Zm5.344,45.232a.934.934,0,0,1-1.863.146l-.473-5.891a.939.939,0,0,1,1.02-1l5.875.471a.934.934,0,1,1-.146,1.863l-3.321-.266A27.936,27.936,0,0,0,49.712,56.75a.934.934,0,1,1,1.066,1.534,29.787,29.787,0,0,1-37.2-2.6l.273,3.4Zm45.232-5.344a.934.934,0,0,1,.146,1.863l-5.891.473a.939.939,0,0,1-1-1.02c.512-6.389,2.375-6.243,2.334-5.728l-.266,3.321A27.936,27.936,0,0,0,56.75,17.884a.934.934,0,1,1,1.534-1.066,29.787,29.787,0,0,1-2.6,37.2l3.4-.273Z" transform="translate(961 693)" fill="#fff" fill-rule="evenodd"></path><g id="Group_69" data-name="Group 69" transform="translate(976.946 713.545)"><g id="Group_68" data-name="Group 68" transform="translate(0 0)"><path id="Path_181" data-name="Path 181" d="M61.5,14.7H43.176A1.266,1.266,0,0,0,41.9,15.976V30.356a1.266,1.266,0,0,0,1.277,1.276H61.536a1.266,1.266,0,0,0,1.276-1.276V15.976A1.323,1.323,0,0,0,61.5,14.7Zm-4.242,2.7a1.577,1.577,0,1,1-1.577,1.577A1.562,1.562,0,0,1,57.256,17.4Zm1.577,10.925H45.767a.4.4,0,0,1-.338-.6l4.618-7.321a.387.387,0,0,1,.638-.038l2.853,3.792a.354.354,0,0,0,.563.038l1.2-1.164a.419.419,0,0,1,.6.038l3.266,4.58A.428.428,0,0,1,58.832,28.329Z" transform="translate(-27.108 -14.7)" fill="#fff"></path><path id="Path_182" data-name="Path 182" d="M3.551,17.1h9.8A1.074,1.074,0,0,0,14.4,16.051,1.049,1.049,0,0,0,13.35,15h-9.8a1.051,1.051,0,0,0,0,2.1Z" transform="translate(-2.5 -14.887)" fill="#fff"></path><path id="Path_183" data-name="Path 183" d="M3.551,30.1h9.8A1.074,1.074,0,0,0,14.4,29.051,1.049,1.049,0,0,0,13.35,28h-9.8a1.051,1.051,0,0,0,0,2.1Z" transform="translate(-2.5 -23.007)" fill="#fff"></path><path id="Path_184" data-name="Path 184" d="M3.551,43h9.8a1.051,1.051,0,1,0,0-2.1h-9.8a1.051,1.051,0,1,0,0,2.1Z" transform="translate(-2.5 -31.063)" fill="#fff"></path><path id="Path_185" data-name="Path 185" d="M3.551,55.9h9.8a1.051,1.051,0,1,0,0-2.1h-9.8a1.051,1.051,0,1,0,0,2.1Z" transform="translate(-2.5 -39.12)" fill="#fff"></path><path id="Path_186" data-name="Path 186" d="M37.078,66.8H3.551a1.051,1.051,0,0,0,0,2.1H37.078a1.074,1.074,0,0,0,1.051-1.051A1.027,1.027,0,0,0,37.078,66.8Z" transform="translate(-2.5 -47.24)" fill="#fff"></path><path id="Path_187" data-name="Path 187" d="M37.078,79.7H3.551a1.051,1.051,0,0,0,0,2.1H37.078a1.074,1.074,0,0,0,1.051-1.051A1.027,1.027,0,0,0,37.078,79.7Z" transform="translate(-2.5 -55.296)" fill="#fff"></path></g></g></g></svg> 